<mxfile host="app.diagrams.net" modified="2021-09-17T08:38:29.841Z" agent="5.0 (Windows NT 10.0; Win64; x64) AppleWebKit/537.36 (KHTML, like Gecko) Chrome/93.0.4577.82 Safari/537.36" etag="FYIaUxGYn7CK3RsdCkBb" version="15.0.3" type="github">
  <diagram id="eo_GGgahoDLmR3U6zA01" name="第 1 页">
    <mxGraphModel dx="1422" dy="785" grid="1" gridSize="10" guides="1" tooltips="1" connect="1" arrows="1" fold="1" page="1" pageScale="1" pageWidth="827" pageHeight="1169" math="0" shadow="0">
      <root>
        <mxCell id="0" />
        <mxCell id="1" parent="0" />
        <mxCell id="VzYPXY8kiI31uvgJ_dXs-4" value="" style="edgeStyle=orthogonalEdgeStyle;rounded=0;orthogonalLoop=1;jettySize=auto;html=1;" edge="1" parent="1" source="VzYPXY8kiI31uvgJ_dXs-1" target="VzYPXY8kiI31uvgJ_dXs-3">
          <mxGeometry relative="1" as="geometry" />
        </mxCell>
        <mxCell id="VzYPXY8kiI31uvgJ_dXs-1" value="触发更新" style="rounded=0;whiteSpace=wrap;html=1;" vertex="1" parent="1">
          <mxGeometry x="80" y="50" width="120" height="60" as="geometry" />
        </mxCell>
        <mxCell id="VzYPXY8kiI31uvgJ_dXs-2" value="&lt;h1&gt;服务更新&lt;/h1&gt;&lt;div&gt;&lt;br&gt;&lt;/div&gt;&lt;p&gt;每一步操作完毕后，都向某个callback发送信息，然后该callback向订阅了某个频道的websocket推送&lt;/p&gt;&lt;p&gt;&lt;br&gt;&lt;/p&gt;" style="text;html=1;strokeColor=none;fillColor=none;spacing=5;spacingTop=-20;whiteSpace=wrap;overflow=hidden;rounded=0;" vertex="1" parent="1">
          <mxGeometry x="620" y="20" width="190" height="140" as="geometry" />
        </mxCell>
        <mxCell id="VzYPXY8kiI31uvgJ_dXs-6" value="" style="edgeStyle=orthogonalEdgeStyle;rounded=0;orthogonalLoop=1;jettySize=auto;html=1;" edge="1" parent="1" source="VzYPXY8kiI31uvgJ_dXs-3" target="VzYPXY8kiI31uvgJ_dXs-5">
          <mxGeometry relative="1" as="geometry" />
        </mxCell>
        <mxCell id="VzYPXY8kiI31uvgJ_dXs-23" style="edgeStyle=orthogonalEdgeStyle;rounded=0;orthogonalLoop=1;jettySize=auto;html=1;entryX=0.5;entryY=0;entryDx=0;entryDy=0;" edge="1" parent="1" source="VzYPXY8kiI31uvgJ_dXs-3" target="VzYPXY8kiI31uvgJ_dXs-21">
          <mxGeometry relative="1" as="geometry" />
        </mxCell>
        <mxCell id="VzYPXY8kiI31uvgJ_dXs-3" value="切换分支" style="rounded=0;whiteSpace=wrap;html=1;" vertex="1" parent="1">
          <mxGeometry x="80" y="140" width="120" height="60" as="geometry" />
        </mxCell>
        <mxCell id="VzYPXY8kiI31uvgJ_dXs-8" value="" style="edgeStyle=orthogonalEdgeStyle;rounded=0;orthogonalLoop=1;jettySize=auto;html=1;" edge="1" parent="1" source="VzYPXY8kiI31uvgJ_dXs-5" target="VzYPXY8kiI31uvgJ_dXs-7">
          <mxGeometry relative="1" as="geometry" />
        </mxCell>
        <mxCell id="VzYPXY8kiI31uvgJ_dXs-24" style="edgeStyle=orthogonalEdgeStyle;rounded=0;orthogonalLoop=1;jettySize=auto;html=1;" edge="1" parent="1" source="VzYPXY8kiI31uvgJ_dXs-5" target="VzYPXY8kiI31uvgJ_dXs-21">
          <mxGeometry relative="1" as="geometry" />
        </mxCell>
        <mxCell id="VzYPXY8kiI31uvgJ_dXs-5" value="更新代码" style="whiteSpace=wrap;html=1;rounded=0;" vertex="1" parent="1">
          <mxGeometry x="80" y="230" width="120" height="60" as="geometry" />
        </mxCell>
        <mxCell id="VzYPXY8kiI31uvgJ_dXs-10" value="" style="edgeStyle=orthogonalEdgeStyle;rounded=0;orthogonalLoop=1;jettySize=auto;html=1;" edge="1" parent="1" source="VzYPXY8kiI31uvgJ_dXs-7" target="VzYPXY8kiI31uvgJ_dXs-9">
          <mxGeometry relative="1" as="geometry" />
        </mxCell>
        <mxCell id="VzYPXY8kiI31uvgJ_dXs-25" style="edgeStyle=orthogonalEdgeStyle;rounded=0;orthogonalLoop=1;jettySize=auto;html=1;entryX=0.5;entryY=0;entryDx=0;entryDy=0;" edge="1" parent="1" source="VzYPXY8kiI31uvgJ_dXs-7" target="VzYPXY8kiI31uvgJ_dXs-21">
          <mxGeometry relative="1" as="geometry" />
        </mxCell>
        <mxCell id="VzYPXY8kiI31uvgJ_dXs-7" value="备份旧包" style="whiteSpace=wrap;html=1;rounded=0;" vertex="1" parent="1">
          <mxGeometry x="80" y="320" width="120" height="60" as="geometry" />
        </mxCell>
        <mxCell id="VzYPXY8kiI31uvgJ_dXs-12" value="" style="edgeStyle=orthogonalEdgeStyle;rounded=0;orthogonalLoop=1;jettySize=auto;html=1;" edge="1" parent="1" source="VzYPXY8kiI31uvgJ_dXs-9" target="VzYPXY8kiI31uvgJ_dXs-11">
          <mxGeometry relative="1" as="geometry" />
        </mxCell>
        <mxCell id="VzYPXY8kiI31uvgJ_dXs-26" style="edgeStyle=orthogonalEdgeStyle;rounded=0;orthogonalLoop=1;jettySize=auto;html=1;entryX=0.5;entryY=0;entryDx=0;entryDy=0;" edge="1" parent="1" source="VzYPXY8kiI31uvgJ_dXs-9" target="VzYPXY8kiI31uvgJ_dXs-21">
          <mxGeometry relative="1" as="geometry" />
        </mxCell>
        <mxCell id="VzYPXY8kiI31uvgJ_dXs-9" value="开始 maven package" style="whiteSpace=wrap;html=1;rounded=0;" vertex="1" parent="1">
          <mxGeometry x="80" y="410" width="120" height="60" as="geometry" />
        </mxCell>
        <mxCell id="VzYPXY8kiI31uvgJ_dXs-14" value="" style="edgeStyle=orthogonalEdgeStyle;rounded=0;orthogonalLoop=1;jettySize=auto;html=1;" edge="1" parent="1" source="VzYPXY8kiI31uvgJ_dXs-11" target="VzYPXY8kiI31uvgJ_dXs-13">
          <mxGeometry relative="1" as="geometry" />
        </mxCell>
        <mxCell id="VzYPXY8kiI31uvgJ_dXs-18" value="" style="edgeStyle=orthogonalEdgeStyle;rounded=0;orthogonalLoop=1;jettySize=auto;html=1;" edge="1" parent="1" source="VzYPXY8kiI31uvgJ_dXs-11" target="VzYPXY8kiI31uvgJ_dXs-17">
          <mxGeometry relative="1" as="geometry" />
        </mxCell>
        <mxCell id="VzYPXY8kiI31uvgJ_dXs-11" value="maven&amp;nbsp; &amp;nbsp; pre-clean&amp;nbsp;&amp;nbsp;" style="whiteSpace=wrap;html=1;rounded=0;" vertex="1" parent="1">
          <mxGeometry x="80" y="510" width="120" height="60" as="geometry" />
        </mxCell>
        <mxCell id="VzYPXY8kiI31uvgJ_dXs-16" value="" style="edgeStyle=orthogonalEdgeStyle;rounded=0;orthogonalLoop=1;jettySize=auto;html=1;" edge="1" parent="1" source="VzYPXY8kiI31uvgJ_dXs-13" target="VzYPXY8kiI31uvgJ_dXs-15">
          <mxGeometry relative="1" as="geometry" />
        </mxCell>
        <mxCell id="VzYPXY8kiI31uvgJ_dXs-29" style="edgeStyle=orthogonalEdgeStyle;rounded=0;orthogonalLoop=1;jettySize=auto;html=1;" edge="1" parent="1" source="VzYPXY8kiI31uvgJ_dXs-13" target="VzYPXY8kiI31uvgJ_dXs-21">
          <mxGeometry relative="1" as="geometry" />
        </mxCell>
        <mxCell id="VzYPXY8kiI31uvgJ_dXs-13" value="maven&amp;nbsp; after-compile" style="whiteSpace=wrap;html=1;rounded=0;" vertex="1" parent="1">
          <mxGeometry x="80" y="610" width="120" height="60" as="geometry" />
        </mxCell>
        <mxCell id="VzYPXY8kiI31uvgJ_dXs-20" value="" style="edgeStyle=orthogonalEdgeStyle;rounded=0;orthogonalLoop=1;jettySize=auto;html=1;" edge="1" parent="1" source="VzYPXY8kiI31uvgJ_dXs-15" target="VzYPXY8kiI31uvgJ_dXs-19">
          <mxGeometry relative="1" as="geometry" />
        </mxCell>
        <mxCell id="VzYPXY8kiI31uvgJ_dXs-15" value="maven&amp;nbsp; &amp;nbsp;package" style="whiteSpace=wrap;html=1;rounded=0;" vertex="1" parent="1">
          <mxGeometry x="80" y="710" width="120" height="60" as="geometry" />
        </mxCell>
        <mxCell id="VzYPXY8kiI31uvgJ_dXs-27" style="edgeStyle=orthogonalEdgeStyle;rounded=0;orthogonalLoop=1;jettySize=auto;html=1;entryX=0.5;entryY=0;entryDx=0;entryDy=0;" edge="1" parent="1" source="VzYPXY8kiI31uvgJ_dXs-17" target="VzYPXY8kiI31uvgJ_dXs-21">
          <mxGeometry relative="1" as="geometry" />
        </mxCell>
        <mxCell id="VzYPXY8kiI31uvgJ_dXs-17" value="shutdownService&lt;br&gt;(销毁服务)" style="whiteSpace=wrap;html=1;rounded=0;" vertex="1" parent="1">
          <mxGeometry x="280" y="510" width="120" height="60" as="geometry" />
        </mxCell>
        <mxCell id="VzYPXY8kiI31uvgJ_dXs-28" style="edgeStyle=orthogonalEdgeStyle;rounded=0;orthogonalLoop=1;jettySize=auto;html=1;" edge="1" parent="1" source="VzYPXY8kiI31uvgJ_dXs-19" target="VzYPXY8kiI31uvgJ_dXs-21">
          <mxGeometry relative="1" as="geometry" />
        </mxCell>
        <mxCell id="VzYPXY8kiI31uvgJ_dXs-19" value="startService&lt;br&gt;(启动服务)" style="whiteSpace=wrap;html=1;rounded=0;" vertex="1" parent="1">
          <mxGeometry x="280" y="710" width="120" height="60" as="geometry" />
        </mxCell>
        <mxCell id="VzYPXY8kiI31uvgJ_dXs-21" value="通过sh反馈更新进度&lt;br&gt;(带参数或各个独立sh)" style="whiteSpace=wrap;html=1;rounded=0;" vertex="1" parent="1">
          <mxGeometry x="450" y="710" width="120" height="60" as="geometry" />
        </mxCell>
      </root>
    </mxGraphModel>
  </diagram>
</mxfile>
